<?xml version="1.0" encoding="UTF-8" standalone="no"?>
<svg
   xmlns:dc="http://purl.org/dc/elements/1.1/"
   xmlns:cc="http://creativecommons.org/ns#"
   xmlns:rdf="http://www.w3.org/1999/02/22-rdf-syntax-ns#"
   xmlns:svg="http://www.w3.org/2000/svg"
   xmlns="http://www.w3.org/2000/svg"
   xmlns:sodipodi="http://sodipodi.sourceforge.net/DTD/sodipodi-0.dtd"
   xmlns:inkscape="http://www.inkscape.org/namespaces/inkscape"
   width="377.95276"
   height="377.95276"
   viewBox="0 0 100 100"
   version="1.1"
   id="svg8"
   inkscape:version="1.0.1 (c497b03c, 2020-09-10)"
   sodipodi:docname="camdenSearch.svg">
  <defs
     id="defs2">
    <inkscape:path-effect
       effect="fillet_chamfer"
       id="path-effect882"
       is_visible="true"
       lpeversion="1"
       satellites_param="F,0,0,1,0,10.583333,0,1 @ F,0,0,1,0,10.583333,0,1 @ F,0,0,1,0,10.583333,0,1 @ F,0,0,1,0,10.583333,0,1"
       unit="px"
       method="auto"
       mode="F"
       radius="40"
       chamfer_steps="1"
       flexible="false"
       use_knot_distance="true"
       apply_no_radius="true"
       apply_with_radius="true"
       only_selected="false"
       hide_knots="false" />
    <path
       d="M648.18 578.12L-8.18 578.12L-8.18 61.88L648.18 61.88L648.18 578.12Z"
       id="dwbG8dROI" />
    <path
       d="M648.18 578.12L-8.18 578.12L-8.18 61.88L648.18 61.88L648.18 578.12Z"
       id="j79N6Tts" />
    <path
       d="M414.22 446.38C435.75 446.38 447.71 446.38 450.1 446.38C450.1 446.38 469.35 443.66 460.63 425.66C460.2 424.77 456.44 424.3 456.44 424.3C453.06 424.3 436.18 424.3 405.8 424.3C400.97 426.55 376.81 437.82 333.33 458.09C333.33 503.65 333.33 528.96 333.33 534.02C418.58 534.02 465.95 534.02 475.42 534.02C475.41 534.02 531.7 521.62 537.32 459.49C520.9 459.49 479.87 459.49 414.22 459.49C414.22 456.87 414.22 447.69 414.22 446.38ZM228.6 446.38C207.08 446.38 195.13 446.38 192.73 446.38C192.73 446.38 173.51 443.66 182.19 425.66C182.64 424.77 186.42 424.3 186.42 424.3C189.8 424.3 206.68 424.3 237.06 424.3C241.89 426.55 266.03 437.82 309.49 458.09C309.49 503.65 309.49 528.96 309.49 534.02C224.24 534.02 176.87 534.02 167.4 534.02C167.39 534.02 111.13 521.62 105.53 459.49C121.94 459.49 162.96 459.49 228.6 459.49C228.6 456.87 228.6 447.69 228.6 446.38Z"
       id="boIgRyIKb" />
    <path
       d="M414.22 446.38C435.75 446.38 447.71 446.38 450.1 446.38C450.1 446.38 469.35 443.66 460.63 425.66C460.2 424.77 456.44 424.3 456.44 424.3C453.06 424.3 436.18 424.3 405.8 424.3C400.97 426.55 376.81 437.82 333.33 458.09C333.33 503.65 333.33 528.96 333.33 534.02C418.58 534.02 465.95 534.02 475.42 534.02C475.41 534.02 531.7 521.62 537.32 459.49C520.9 459.49 479.87 459.49 414.22 459.49C414.22 456.87 414.22 447.69 414.22 446.38ZM228.6 446.38C207.08 446.38 195.13 446.38 192.73 446.38C192.73 446.38 173.51 443.66 182.19 425.66C182.64 424.77 186.42 424.3 186.42 424.3C189.8 424.3 206.68 424.3 237.06 424.3C241.89 426.55 266.03 437.82 309.49 458.09C309.49 503.65 309.49 528.96 309.49 534.02C224.24 534.02 176.87 534.02 167.4 534.02C167.39 534.02 111.13 521.62 105.53 459.49C121.94 459.49 162.96 459.49 228.6 459.49C228.6 456.87 228.6 447.69 228.6 446.38Z"
       id="c2AiW12TiJ" />
    <path
       d="M118.23 422.29C139.74 422.29 151.69 422.29 154.08 422.29C154.08 422.29 173.33 425 164.63 442.99C164.18 443.91 160.41 444.35 160.41 444.35C157.04 444.35 140.16 444.35 109.77 444.35C104.94 442.1 80.79 430.83 37.33 410.54C37.33 365.01 37.33 339.71 37.33 334.65C122.57 334.65 169.93 334.65 179.41 334.65C179.39 334.65 235.66 347.05 241.3 409.16C224.89 409.16 183.87 409.16 118.23 409.16C118.23 411.79 118.23 420.98 118.23 422.29ZM414.22 191.2C435.75 191.2 447.71 191.2 450.1 191.2C450.1 191.2 469.35 193.94 460.63 211.9C460.2 212.81 456.44 213.28 456.44 213.28C453.06 213.28 436.18 213.28 405.8 213.28C400.97 211.03 376.81 199.76 333.33 179.49C333.33 133.93 333.33 108.62 333.33 103.56C418.58 103.56 465.95 103.56 475.42 103.56C475.41 103.56 531.7 115.97 537.32 178.09C520.9 178.09 479.87 178.09 414.22 178.09C414.22 180.71 414.22 189.89 414.22 191.2ZM228.6 191.2C207.08 191.2 195.13 191.2 192.73 191.2C192.73 191.2 173.51 193.94 182.19 211.9C182.64 212.81 186.42 213.28 186.42 213.28C189.8 213.28 206.68 213.28 237.06 213.28C241.89 211.03 266.03 199.76 309.49 179.49C309.49 133.93 309.49 108.62 309.49 103.56C224.24 103.56 176.87 103.56 167.4 103.56C167.39 103.56 111.13 115.97 105.53 178.09C121.94 178.09 162.96 178.09 228.6 178.09C228.6 180.71 228.6 189.89 228.6 191.2Z"
       id="crvv4UGMn" />
    <path
       d="M118.23 422.29C139.74 422.29 151.69 422.29 154.08 422.29C154.08 422.29 173.33 425 164.63 442.99C164.18 443.91 160.41 444.35 160.41 444.35C157.04 444.35 140.16 444.35 109.77 444.35C104.94 442.1 80.79 430.83 37.33 410.54C37.33 365.01 37.33 339.71 37.33 334.65C122.57 334.65 169.93 334.65 179.41 334.65C179.39 334.65 235.66 347.05 241.3 409.16C224.89 409.16 183.87 409.16 118.23 409.16C118.23 411.79 118.23 420.98 118.23 422.29ZM414.22 191.2C435.75 191.2 447.71 191.2 450.1 191.2C450.1 191.2 469.35 193.94 460.63 211.9C460.2 212.81 456.44 213.28 456.44 213.28C453.06 213.28 436.18 213.28 405.8 213.28C400.97 211.03 376.81 199.76 333.33 179.49C333.33 133.93 333.33 108.62 333.33 103.56C418.58 103.56 465.95 103.56 475.42 103.56C475.41 103.56 531.7 115.97 537.32 178.09C520.9 178.09 479.87 178.09 414.22 178.09C414.22 180.71 414.22 189.89 414.22 191.2ZM228.6 191.2C207.08 191.2 195.13 191.2 192.73 191.2C192.73 191.2 173.51 193.94 182.19 211.9C182.64 212.81 186.42 213.28 186.42 213.28C189.8 213.28 206.68 213.28 237.06 213.28C241.89 211.03 266.03 199.76 309.49 179.49C309.49 133.93 309.49 108.62 309.49 103.56C224.24 103.56 176.87 103.56 167.4 103.56C167.39 103.56 111.13 115.97 105.53 178.09C121.94 178.09 162.96 178.09 228.6 178.09C228.6 180.71 228.6 189.89 228.6 191.2Z"
       id="a2fSZ8BLTW" />
    <path
       d="M118.23 215.31C139.74 215.31 151.69 215.31 154.08 215.31C154.08 215.31 173.33 212.61 164.63 194.6C164.18 193.7 160.41 193.24 160.41 193.24C157.04 193.24 140.16 193.24 109.77 193.24C104.94 195.49 80.79 206.77 37.33 227.06C37.33 272.59 37.33 297.89 37.33 302.95C122.57 302.95 169.93 302.95 179.41 302.95C179.39 302.95 235.66 290.53 241.3 228.43C224.89 228.43 183.87 228.43 118.23 228.43C118.23 225.81 118.23 216.62 118.23 215.31ZM527.72 215.31C506.2 215.31 494.24 215.31 491.85 215.31C491.85 215.31 472.58 212.61 481.29 194.6C481.73 193.7 485.52 193.24 485.52 193.24C488.89 193.24 505.76 193.24 536.12 193.24C540.95 195.49 565.11 206.77 608.59 227.06C608.59 272.59 608.59 297.89 608.59 302.95C523.34 302.95 475.99 302.95 466.51 302.95C466.51 302.95 410.23 290.53 404.6 228.43C421.02 228.43 462.06 228.43 527.72 228.43C527.72 225.81 527.72 216.62 527.72 215.31ZM527.72 422.29C506.2 422.29 494.24 422.29 491.85 422.29C491.85 422.29 472.58 425 481.29 442.99C481.73 443.91 485.52 444.35 485.52 444.35C488.89 444.35 505.76 444.35 536.12 444.35C540.95 442.1 565.11 430.83 608.59 410.54C608.59 365.01 608.59 339.71 608.59 334.65C523.34 334.65 475.99 334.65 466.51 334.65C466.51 334.65 410.23 347.05 404.6 409.16C421.02 409.16 462.06 409.16 527.72 409.16C527.72 411.79 527.72 420.98 527.72 422.29Z"
       id="b59cIqwIs" />
    <path
       d="M118.23 215.31C139.74 215.31 151.69 215.31 154.08 215.31C154.08 215.31 173.33 212.61 164.63 194.6C164.18 193.7 160.41 193.24 160.41 193.24C157.04 193.24 140.16 193.24 109.77 193.24C104.94 195.49 80.79 206.77 37.33 227.06C37.33 272.59 37.33 297.89 37.33 302.95C122.57 302.95 169.93 302.95 179.41 302.95C179.39 302.95 235.66 290.53 241.3 228.43C224.89 228.43 183.87 228.43 118.23 228.43C118.23 225.81 118.23 216.62 118.23 215.31ZM527.72 215.31C506.2 215.31 494.24 215.31 491.85 215.31C491.85 215.31 472.58 212.61 481.29 194.6C481.73 193.7 485.52 193.24 485.52 193.24C488.89 193.24 505.76 193.24 536.12 193.24C540.95 195.49 565.11 206.77 608.59 227.06C608.59 272.59 608.59 297.89 608.59 302.95C523.34 302.95 475.99 302.95 466.51 302.95C466.51 302.95 410.23 290.53 404.6 228.43C421.02 228.43 462.06 228.43 527.72 228.43C527.72 225.81 527.72 216.62 527.72 215.31ZM527.72 422.29C506.2 422.29 494.24 422.29 491.85 422.29C491.85 422.29 472.58 425 481.29 442.99C481.73 443.91 485.52 444.35 485.52 444.35C488.89 444.35 505.76 444.35 536.12 444.35C540.95 442.1 565.11 430.83 608.59 410.54C608.59 365.01 608.59 339.71 608.59 334.65C523.34 334.65 475.99 334.65 466.51 334.65C466.51 334.65 410.23 347.05 404.6 409.16C421.02 409.16 462.06 409.16 527.72 409.16C527.72 411.79 527.72 420.98 527.72 422.29Z"
       id="eb10Zit7m" />
  </defs>
  <sodipodi:namedview
     id="base"
     pagecolor="#ffffff"
     bordercolor="#666666"
     borderopacity="1.0"
     inkscape:pageopacity="0.0"
     inkscape:pageshadow="2"
     inkscape:zoom="0.90872999"
     inkscape:cx="169.01073"
     inkscape:cy="221.93407"
     inkscape:document-units="mm"
     inkscape:current-layer="layer1"
     inkscape:document-rotation="0"
     showgrid="false"
     units="px"
     inkscape:window-width="1440"
     inkscape:window-height="855"
     inkscape:window-x="0"
     inkscape:window-y="23"
     inkscape:window-maximized="0" />
  <metadata
     id="metadata5">
    <rdf:RDF>
      <cc:Work
         rdf:about="">
        <dc:format>image/svg+xml</dc:format>
        <dc:type
           rdf:resource="http://purl.org/dc/dcmitype/StillImage" />
        <dc:title />
      </cc:Work>
    </rdf:RDF>
  </metadata>
  <g
     inkscape:label="Layer 1"
     inkscape:groupmode="layer"
     id="layer1">
    <path
       style="font-variation-settings:normal;opacity:1;vector-effect:none;fill:none;fill-opacity:1;fill-rule:evenodd;stroke-width:4;stroke-linecap:butt;stroke-linejoin:miter;stroke-miterlimit:4;stroke-dasharray:none;stroke-dashoffset:0;stroke-opacity:1;paint-order:markers stroke fill;stop-color:#000000;stop-opacity:1;stroke:#ffffff"
       id="rect880"
       width="89.999992"
       height="89.999992"
       x="5.0000043"
       y="5.0000043"
       inkscape:path-effect="#path-effect882"
       d="M 15.583337,5.0000043 H 84.416664 A 10.583333,10.583333 45 0 1 94.999997,15.583337 V 84.416664 A 10.583333,10.583333 135 0 1 84.416664,94.999997 H 15.583337 A 10.583333,10.583333 45 0 1 5.0000043,84.416664 V 15.583337 A 10.583333,10.583333 135 0 1 15.583337,5.0000043 Z"
       sodipodi:type="rect" />
    <g
       id="g913"
       transform="matrix(0.08482225,0,0,0.08433678,22.85688,23.012231)"
       style="fill-rule:evenodd;stroke:none;stroke-width:0;stroke-miterlimit:4;stroke-dasharray:none;stroke-opacity:1;opacity:0.8">
      <g
         id="g855"
         style="fill-rule:evenodd;stroke:none;stroke-width:0;stroke-miterlimit:4;stroke-dasharray:none;stroke-opacity:1">
        <path
           d="M 648.18,578.12 H -8.18 V 61.88 h 656.36 z"
           id="use849"
           style="fill:#ffffff;fill-opacity:0;fill-rule:evenodd;stroke:none;stroke-width:0;stroke-miterlimit:4;stroke-dasharray:none;stroke-opacity:1" />
        <g
           id="g853"
           style="fill-rule:evenodd;stroke:none;stroke-width:0;stroke-miterlimit:4;stroke-dasharray:none;stroke-opacity:1">
          <path
             d="M 648.18,578.12 H -8.18 V 61.88 h 656.36 z"
             id="use851"
             style="fill-opacity:0;fill-rule:evenodd;stroke:none;stroke-width:0;stroke-miterlimit:4;stroke-dasharray:none;stroke-opacity:1" />
        </g>
      </g>
      <g
         id="g863"
         style="fill-rule:evenodd;stroke:none;stroke-width:0;stroke-miterlimit:4;stroke-dasharray:none;stroke-opacity:1">
        <path
           d="M 648.18,578.12 H -8.18 V 61.88 h 656.36 z"
           id="use857"
           style="fill:#000000;fill-opacity:0;fill-rule:evenodd;stroke:none;stroke-width:0;stroke-miterlimit:4;stroke-dasharray:none;stroke-opacity:1" />
        <g
           id="g861"
           style="fill-rule:evenodd;stroke:none;stroke-width:0;stroke-miterlimit:4;stroke-dasharray:none;stroke-opacity:1">
          <path
             d="M 648.18,578.12 H -8.18 V 61.88 h 656.36 z"
             id="use859"
             style="fill-opacity:0;fill-rule:evenodd;stroke:none;stroke-width:0;stroke-miterlimit:4;stroke-dasharray:none;stroke-opacity:1" />
        </g>
      </g>
      <g
         id="g871"
         style="fill-rule:evenodd;stroke:none;stroke-width:0;stroke-miterlimit:4;stroke-dasharray:none;stroke-opacity:1">
        <path
           d="m 414.22,446.38 c 21.53,0 33.49,0 35.88,0 0,0 19.25,-2.72 10.53,-20.72 -0.43,-0.89 -4.19,-1.36 -4.19,-1.36 -3.38,0 -20.26,0 -50.64,0 -4.83,2.25 -28.99,13.52 -72.47,33.79 0,45.56 0,70.87 0,75.93 85.25,0 132.62,0 142.09,0 -0.01,0 56.28,-12.4 61.9,-74.53 -16.42,0 -57.45,0 -123.1,0 0,-2.62 0,-11.8 0,-13.11 z m -185.62,0 c -21.52,0 -33.47,0 -35.87,0 0,0 -19.22,-2.72 -10.54,-20.72 0.45,-0.89 4.23,-1.36 4.23,-1.36 3.38,0 20.26,0 50.64,0 4.83,2.25 28.97,13.52 72.43,33.79 0,45.56 0,70.87 0,75.93 -85.25,0 -132.62,0 -142.09,0 -0.01,0 -56.27,-12.4 -61.87,-74.53 16.41,0 57.43,0 123.07,0 0,-2.62 0,-11.8 0,-13.11 z"
           id="use865"
           style="fill:#000000;fill-opacity:1;fill-rule:evenodd;stroke:none;stroke-width:0;stroke-miterlimit:4;stroke-dasharray:none;stroke-opacity:1" />
        <g
           id="g869"
           style="fill-rule:evenodd;stroke:none;stroke-width:0;stroke-miterlimit:4;stroke-dasharray:none;stroke-opacity:1">
          <path
             d="m 414.22,446.38 c 21.53,0 33.49,0 35.88,0 0,0 19.25,-2.72 10.53,-20.72 -0.43,-0.89 -4.19,-1.36 -4.19,-1.36 -3.38,0 -20.26,0 -50.64,0 -4.83,2.25 -28.99,13.52 -72.47,33.79 0,45.56 0,70.87 0,75.93 85.25,0 132.62,0 142.09,0 -0.01,0 56.28,-12.4 61.9,-74.53 -16.42,0 -57.45,0 -123.1,0 0,-2.62 0,-11.8 0,-13.11 z m -185.62,0 c -21.52,0 -33.47,0 -35.87,0 0,0 -19.22,-2.72 -10.54,-20.72 0.45,-0.89 4.23,-1.36 4.23,-1.36 3.38,0 20.26,0 50.64,0 4.83,2.25 28.97,13.52 72.43,33.79 0,45.56 0,70.87 0,75.93 -85.25,0 -132.62,0 -142.09,0 -0.01,0 -56.27,-12.4 -61.87,-74.53 16.41,0 57.43,0 123.07,0 0,-2.62 0,-11.8 0,-13.11 z"
             id="use867"
             style="fill-opacity:0;fill-rule:evenodd;stroke:none;stroke-width:0;stroke-miterlimit:4;stroke-dasharray:none;stroke-opacity:1" />
        </g>
      </g>
      <g
         id="g879"
         style="fill-rule:evenodd;stroke:none;stroke-width:0;stroke-miterlimit:4;stroke-dasharray:none;stroke-opacity:1">
        <path
           d="m 414.22,446.38 c 21.53,0 33.49,0 35.88,0 0,0 19.25,-2.72 10.53,-20.72 -0.43,-0.89 -4.19,-1.36 -4.19,-1.36 -3.38,0 -20.26,0 -50.64,0 -4.83,2.25 -28.99,13.52 -72.47,33.79 0,45.56 0,70.87 0,75.93 85.25,0 132.62,0 142.09,0 -0.01,0 56.28,-12.4 61.9,-74.53 -16.42,0 -57.45,0 -123.1,0 0,-2.62 0,-11.8 0,-13.11 z m -185.62,0 c -21.52,0 -33.47,0 -35.87,0 0,0 -19.22,-2.72 -10.54,-20.72 0.45,-0.89 4.23,-1.36 4.23,-1.36 3.38,0 20.26,0 50.64,0 4.83,2.25 28.97,13.52 72.43,33.79 0,45.56 0,70.87 0,75.93 -85.25,0 -132.62,0 -142.09,0 -0.01,0 -56.27,-12.4 -61.87,-74.53 16.41,0 57.43,0 123.07,0 0,-2.62 0,-11.8 0,-13.11 z"
           id="use873"
           style="fill:#ffffff;fill-opacity:1;fill-rule:evenodd;stroke:none;stroke-width:0;stroke-miterlimit:4;stroke-dasharray:none;stroke-opacity:1" />
        <g
           id="g877"
           style="fill-rule:evenodd;stroke:none;stroke-width:0;stroke-miterlimit:4;stroke-dasharray:none;stroke-opacity:1">
          <path
             d="m 414.22,446.38 c 21.53,0 33.49,0 35.88,0 0,0 19.25,-2.72 10.53,-20.72 -0.43,-0.89 -4.19,-1.36 -4.19,-1.36 -3.38,0 -20.26,0 -50.64,0 -4.83,2.25 -28.99,13.52 -72.47,33.79 0,45.56 0,70.87 0,75.93 85.25,0 132.62,0 142.09,0 -0.01,0 56.28,-12.4 61.9,-74.53 -16.42,0 -57.45,0 -123.1,0 0,-2.62 0,-11.8 0,-13.11 z m -185.62,0 c -21.52,0 -33.47,0 -35.87,0 0,0 -19.22,-2.72 -10.54,-20.72 0.45,-0.89 4.23,-1.36 4.23,-1.36 3.38,0 20.26,0 50.64,0 4.83,2.25 28.97,13.52 72.43,33.79 0,45.56 0,70.87 0,75.93 -85.25,0 -132.62,0 -142.09,0 -0.01,0 -56.27,-12.4 -61.87,-74.53 16.41,0 57.43,0 123.07,0 0,-2.62 0,-11.8 0,-13.11 z"
             id="use875"
             style="fill-opacity:0;fill-rule:evenodd;stroke:none;stroke-width:0;stroke-miterlimit:4;stroke-dasharray:none;stroke-opacity:1" />
        </g>
      </g>
      <g
         id="g887"
         style="fill-rule:evenodd;stroke:none;stroke-width:0;stroke-miterlimit:4;stroke-dasharray:none;stroke-opacity:1">
        <path
           d="m 118.23,422.29 c 21.51,0 33.46,0 35.85,0 0,0 19.25,2.71 10.55,20.7 -0.45,0.92 -4.22,1.36 -4.22,1.36 -3.37,0 -20.25,0 -50.64,0 -4.83,-2.25 -28.98,-13.52 -72.44,-33.81 0,-45.53 0,-70.83 0,-75.89 85.24,0 132.6,0 142.08,0 -0.02,0 56.25,12.4 61.89,74.51 -16.41,0 -57.43,0 -123.07,0 0,2.63 0,11.82 0,13.13 z M 414.22,191.2 c 21.53,0 33.49,0 35.88,0 0,0 19.25,2.74 10.53,20.7 -0.43,0.91 -4.19,1.38 -4.19,1.38 -3.38,0 -20.26,0 -50.64,0 -4.83,-2.25 -28.99,-13.52 -72.47,-33.79 0,-45.56 0,-70.87 0,-75.93 85.25,0 132.62,0 142.09,0 -0.01,0 56.28,12.41 61.9,74.53 -16.42,0 -57.45,0 -123.1,0 0,2.62 0,11.8 0,13.11 z m -185.62,0 c -21.52,0 -33.47,0 -35.87,0 0,0 -19.22,2.74 -10.54,20.7 0.45,0.91 4.23,1.38 4.23,1.38 3.38,0 20.26,0 50.64,0 4.83,-2.25 28.97,-13.52 72.43,-33.79 0,-45.56 0,-70.87 0,-75.93 -85.25,0 -132.62,0 -142.09,0 -0.01,0 -56.27,12.41 -61.87,74.53 16.41,0 57.43,0 123.07,0 0,2.62 0,11.8 0,13.11 z"
           id="use881"
           style="fill:#000000;fill-opacity:1;fill-rule:evenodd;stroke:none;stroke-width:0;stroke-miterlimit:4;stroke-dasharray:none;stroke-opacity:1" />
        <g
           id="g885"
           style="fill-rule:evenodd;stroke:none;stroke-width:0;stroke-miterlimit:4;stroke-dasharray:none;stroke-opacity:1">
          <path
             d="m 118.23,422.29 c 21.51,0 33.46,0 35.85,0 0,0 19.25,2.71 10.55,20.7 -0.45,0.92 -4.22,1.36 -4.22,1.36 -3.37,0 -20.25,0 -50.64,0 -4.83,-2.25 -28.98,-13.52 -72.44,-33.81 0,-45.53 0,-70.83 0,-75.89 85.24,0 132.6,0 142.08,0 -0.02,0 56.25,12.4 61.89,74.51 -16.41,0 -57.43,0 -123.07,0 0,2.63 0,11.82 0,13.13 z M 414.22,191.2 c 21.53,0 33.49,0 35.88,0 0,0 19.25,2.74 10.53,20.7 -0.43,0.91 -4.19,1.38 -4.19,1.38 -3.38,0 -20.26,0 -50.64,0 -4.83,-2.25 -28.99,-13.52 -72.47,-33.79 0,-45.56 0,-70.87 0,-75.93 85.25,0 132.62,0 142.09,0 -0.01,0 56.28,12.41 61.9,74.53 -16.42,0 -57.45,0 -123.1,0 0,2.62 0,11.8 0,13.11 z m -185.62,0 c -21.52,0 -33.47,0 -35.87,0 0,0 -19.22,2.74 -10.54,20.7 0.45,0.91 4.23,1.38 4.23,1.38 3.38,0 20.26,0 50.64,0 4.83,-2.25 28.97,-13.52 72.43,-33.79 0,-45.56 0,-70.87 0,-75.93 -85.25,0 -132.62,0 -142.09,0 -0.01,0 -56.27,12.41 -61.87,74.53 16.41,0 57.43,0 123.07,0 0,2.62 0,11.8 0,13.11 z"
             id="use883"
             style="fill-opacity:0;fill-rule:evenodd;stroke:none;stroke-width:0;stroke-miterlimit:4;stroke-dasharray:none;stroke-opacity:1" />
        </g>
      </g>
      <g
         id="g895"
         style="fill-rule:evenodd;stroke:none;stroke-width:0;stroke-miterlimit:4;stroke-dasharray:none;stroke-opacity:1">
        <path
           d="m 118.23,422.29 c 21.51,0 33.46,0 35.85,0 0,0 19.25,2.71 10.55,20.7 -0.45,0.92 -4.22,1.36 -4.22,1.36 -3.37,0 -20.25,0 -50.64,0 -4.83,-2.25 -28.98,-13.52 -72.44,-33.81 0,-45.53 0,-70.83 0,-75.89 85.24,0 132.6,0 142.08,0 -0.02,0 56.25,12.4 61.89,74.51 -16.41,0 -57.43,0 -123.07,0 0,2.63 0,11.82 0,13.13 z M 414.22,191.2 c 21.53,0 33.49,0 35.88,0 0,0 19.25,2.74 10.53,20.7 -0.43,0.91 -4.19,1.38 -4.19,1.38 -3.38,0 -20.26,0 -50.64,0 -4.83,-2.25 -28.99,-13.52 -72.47,-33.79 0,-45.56 0,-70.87 0,-75.93 85.25,0 132.62,0 142.09,0 -0.01,0 56.28,12.41 61.9,74.53 -16.42,0 -57.45,0 -123.1,0 0,2.62 0,11.8 0,13.11 z m -185.62,0 c -21.52,0 -33.47,0 -35.87,0 0,0 -19.22,2.74 -10.54,20.7 0.45,0.91 4.23,1.38 4.23,1.38 3.38,0 20.26,0 50.64,0 4.83,-2.25 28.97,-13.52 72.43,-33.79 0,-45.56 0,-70.87 0,-75.93 -85.25,0 -132.62,0 -142.09,0 -0.01,0 -56.27,12.41 -61.87,74.53 16.41,0 57.43,0 123.07,0 0,2.62 0,11.8 0,13.11 z"
           id="use889"
           style="fill:#ffffff;fill-opacity:1;fill-rule:evenodd;stroke:none;stroke-width:0;stroke-miterlimit:4;stroke-dasharray:none;stroke-opacity:1" />
        <g
           id="g893"
           style="fill-rule:evenodd;stroke:none;stroke-width:0;stroke-miterlimit:4;stroke-dasharray:none;stroke-opacity:1">
          <path
             d="m 118.23,422.29 c 21.51,0 33.46,0 35.85,0 0,0 19.25,2.71 10.55,20.7 -0.45,0.92 -4.22,1.36 -4.22,1.36 -3.37,0 -20.25,0 -50.64,0 -4.83,-2.25 -28.98,-13.52 -72.44,-33.81 0,-45.53 0,-70.83 0,-75.89 85.24,0 132.6,0 142.08,0 -0.02,0 56.25,12.4 61.89,74.51 -16.41,0 -57.43,0 -123.07,0 0,2.63 0,11.82 0,13.13 z M 414.22,191.2 c 21.53,0 33.49,0 35.88,0 0,0 19.25,2.74 10.53,20.7 -0.43,0.91 -4.19,1.38 -4.19,1.38 -3.38,0 -20.26,0 -50.64,0 -4.83,-2.25 -28.99,-13.52 -72.47,-33.79 0,-45.56 0,-70.87 0,-75.93 85.25,0 132.62,0 142.09,0 -0.01,0 56.28,12.41 61.9,74.53 -16.42,0 -57.45,0 -123.1,0 0,2.62 0,11.8 0,13.11 z m -185.62,0 c -21.52,0 -33.47,0 -35.87,0 0,0 -19.22,2.74 -10.54,20.7 0.45,0.91 4.23,1.38 4.23,1.38 3.38,0 20.26,0 50.64,0 4.83,-2.25 28.97,-13.52 72.43,-33.79 0,-45.56 0,-70.87 0,-75.93 -85.25,0 -132.62,0 -142.09,0 -0.01,0 -56.27,12.41 -61.87,74.53 16.41,0 57.43,0 123.07,0 0,2.62 0,11.8 0,13.11 z"
             id="use891"
             style="fill-opacity:0;fill-rule:evenodd;stroke:none;stroke-width:0;stroke-miterlimit:4;stroke-dasharray:none;stroke-opacity:1" />
        </g>
      </g>
      <g
         id="g903"
         style="fill-rule:evenodd;stroke:none;stroke-width:0;stroke-miterlimit:4;stroke-dasharray:none;stroke-opacity:1">
        <path
           d="m 118.23,215.31 c 21.51,0 33.46,0 35.85,0 0,0 19.25,-2.7 10.55,-20.71 -0.45,-0.9 -4.22,-1.36 -4.22,-1.36 -3.37,0 -20.25,0 -50.64,0 -4.83,2.25 -28.98,13.53 -72.44,33.82 0,45.53 0,70.83 0,75.89 85.24,0 132.6,0 142.08,0 -0.02,0 56.25,-12.42 61.89,-74.52 -16.41,0 -57.43,0 -123.07,0 0,-2.62 0,-11.81 0,-13.12 z m 409.49,0 c -21.52,0 -33.48,0 -35.87,0 0,0 -19.27,-2.7 -10.56,-20.71 0.44,-0.9 4.23,-1.36 4.23,-1.36 3.37,0 20.24,0 50.6,0 4.83,2.25 28.99,13.53 72.47,33.82 0,45.53 0,70.83 0,75.89 -85.25,0 -132.6,0 -142.08,0 0,0 -56.28,-12.42 -61.91,-74.52 16.42,0 57.46,0 123.12,0 0,-2.62 0,-11.81 0,-13.12 z m 0,206.98 c -21.52,0 -33.48,0 -35.87,0 0,0 -19.27,2.71 -10.56,20.7 0.44,0.92 4.23,1.36 4.23,1.36 3.37,0 20.24,0 50.6,0 4.83,-2.25 28.99,-13.52 72.47,-33.81 0,-45.53 0,-70.83 0,-75.89 -85.25,0 -132.6,0 -142.08,0 0,0 -56.28,12.4 -61.91,74.51 16.42,0 57.46,0 123.12,0 0,2.63 0,11.82 0,13.13 z"
           id="use897"
           style="fill:#000000;fill-opacity:1;fill-rule:evenodd;stroke:none;stroke-width:0;stroke-miterlimit:4;stroke-dasharray:none;stroke-opacity:1" />
        <g
           id="g901"
           style="fill-rule:evenodd;stroke:none;stroke-width:0;stroke-miterlimit:4;stroke-dasharray:none;stroke-opacity:1">
          <path
             d="m 118.23,215.31 c 21.51,0 33.46,0 35.85,0 0,0 19.25,-2.7 10.55,-20.71 -0.45,-0.9 -4.22,-1.36 -4.22,-1.36 -3.37,0 -20.25,0 -50.64,0 -4.83,2.25 -28.98,13.53 -72.44,33.82 0,45.53 0,70.83 0,75.89 85.24,0 132.6,0 142.08,0 -0.02,0 56.25,-12.42 61.89,-74.52 -16.41,0 -57.43,0 -123.07,0 0,-2.62 0,-11.81 0,-13.12 z m 409.49,0 c -21.52,0 -33.48,0 -35.87,0 0,0 -19.27,-2.7 -10.56,-20.71 0.44,-0.9 4.23,-1.36 4.23,-1.36 3.37,0 20.24,0 50.6,0 4.83,2.25 28.99,13.53 72.47,33.82 0,45.53 0,70.83 0,75.89 -85.25,0 -132.6,0 -142.08,0 0,0 -56.28,-12.42 -61.91,-74.52 16.42,0 57.46,0 123.12,0 0,-2.62 0,-11.81 0,-13.12 z m 0,206.98 c -21.52,0 -33.48,0 -35.87,0 0,0 -19.27,2.71 -10.56,20.7 0.44,0.92 4.23,1.36 4.23,1.36 3.37,0 20.24,0 50.6,0 4.83,-2.25 28.99,-13.52 72.47,-33.81 0,-45.53 0,-70.83 0,-75.89 -85.25,0 -132.6,0 -142.08,0 0,0 -56.28,12.4 -61.91,74.51 16.42,0 57.46,0 123.12,0 0,2.63 0,11.82 0,13.13 z"
             id="use899"
             style="fill-opacity:0;fill-rule:evenodd;stroke:none;stroke-width:0;stroke-miterlimit:4;stroke-dasharray:none;stroke-opacity:1" />
        </g>
      </g>
      <g
         id="g911"
         style="fill-rule:evenodd;stroke:none;stroke-width:0;stroke-miterlimit:4;stroke-dasharray:none;stroke-opacity:1">
        <path
           d="m 118.23,215.31 c 21.51,0 33.46,0 35.85,0 0,0 19.25,-2.7 10.55,-20.71 -0.45,-0.9 -4.22,-1.36 -4.22,-1.36 -3.37,0 -20.25,0 -50.64,0 -4.83,2.25 -28.98,13.53 -72.44,33.82 0,45.53 0,70.83 0,75.89 85.24,0 132.6,0 142.08,0 -0.02,0 56.25,-12.42 61.89,-74.52 -16.41,0 -57.43,0 -123.07,0 0,-2.62 0,-11.81 0,-13.12 z m 409.49,0 c -21.52,0 -33.48,0 -35.87,0 0,0 -19.27,-2.7 -10.56,-20.71 0.44,-0.9 4.23,-1.36 4.23,-1.36 3.37,0 20.24,0 50.6,0 4.83,2.25 28.99,13.53 72.47,33.82 0,45.53 0,70.83 0,75.89 -85.25,0 -132.6,0 -142.08,0 0,0 -56.28,-12.42 -61.91,-74.52 16.42,0 57.46,0 123.12,0 0,-2.62 0,-11.81 0,-13.12 z m 0,206.98 c -21.52,0 -33.48,0 -35.87,0 0,0 -19.27,2.71 -10.56,20.7 0.44,0.92 4.23,1.36 4.23,1.36 3.37,0 20.24,0 50.6,0 4.83,-2.25 28.99,-13.52 72.47,-33.81 0,-45.53 0,-70.83 0,-75.89 -85.25,0 -132.6,0 -142.08,0 0,0 -56.28,12.4 -61.91,74.51 16.42,0 57.46,0 123.12,0 0,2.63 0,11.82 0,13.13 z"
           id="use905"
           style="fill:#ffffff;fill-opacity:1;fill-rule:evenodd;stroke:none;stroke-width:0;stroke-miterlimit:4;stroke-dasharray:none;stroke-opacity:1" />
        <g
           id="g909"
           style="fill-rule:evenodd;stroke:none;stroke-width:0;stroke-miterlimit:4;stroke-dasharray:none;stroke-opacity:1">
          <path
             d="m 118.23,215.31 c 21.51,0 33.46,0 35.85,0 0,0 19.25,-2.7 10.55,-20.71 -0.45,-0.9 -4.22,-1.36 -4.22,-1.36 -3.37,0 -20.25,0 -50.64,0 -4.83,2.25 -28.98,13.53 -72.44,33.82 0,45.53 0,70.83 0,75.89 85.24,0 132.6,0 142.08,0 -0.02,0 56.25,-12.42 61.89,-74.52 -16.41,0 -57.43,0 -123.07,0 0,-2.62 0,-11.81 0,-13.12 z m 409.49,0 c -21.52,0 -33.48,0 -35.87,0 0,0 -19.27,-2.7 -10.56,-20.71 0.44,-0.9 4.23,-1.36 4.23,-1.36 3.37,0 20.24,0 50.6,0 4.83,2.25 28.99,13.53 72.47,33.82 0,45.53 0,70.83 0,75.89 -85.25,0 -132.6,0 -142.08,0 0,0 -56.28,-12.42 -61.91,-74.52 16.42,0 57.46,0 123.12,0 0,-2.62 0,-11.81 0,-13.12 z m 0,206.98 c -21.52,0 -33.48,0 -35.87,0 0,0 -19.27,2.71 -10.56,20.7 0.44,0.92 4.23,1.36 4.23,1.36 3.37,0 20.24,0 50.6,0 4.83,-2.25 28.99,-13.52 72.47,-33.81 0,-45.53 0,-70.83 0,-75.89 -85.25,0 -132.6,0 -142.08,0 0,0 -56.28,12.4 -61.91,74.51 16.42,0 57.46,0 123.12,0 0,2.63 0,11.82 0,13.13 z"
             id="use907"
             style="fill-opacity:0;fill-rule:evenodd;stroke:none;stroke-width:0;stroke-miterlimit:4;stroke-dasharray:none;stroke-opacity:1" />
        </g>
      </g>
    </g>
    <circle
       style="fill:none;fill-opacity:1;fill-rule:evenodd;stroke:#ffffff;stroke-width:4;stroke-linecap:round;stroke-opacity:1;paint-order:markers stroke fill;stroke-miterlimit:4;stroke-dasharray:none;opacity:0.8"
       id="path1505"
       cx="50"
       cy="50"
       r="35.451454" />
    <path
       style="fill:none;stroke:#ffffff;stroke-width:6;stroke-linecap:butt;stroke-linejoin:miter;stroke-opacity:1;stroke-miterlimit:4;stroke-dasharray:none;opacity:0.8"
       d="M 26.533909,73.722954 7.9442838,91.359264"
       id="path1507" />
  </g>
</svg>
