<?xml version="1.0" encoding="UTF-8" standalone="no"?>
<svg
   xmlns:dc="http://purl.org/dc/elements/1.1/"
   xmlns:cc="http://creativecommons.org/ns#"
   xmlns:rdf="http://www.w3.org/1999/02/22-rdf-syntax-ns#"
   xmlns:svg="http://www.w3.org/2000/svg"
   xmlns="http://www.w3.org/2000/svg"
   xmlns:sodipodi="http://sodipodi.sourceforge.net/DTD/sodipodi-0.dtd"
   xmlns:inkscape="http://www.inkscape.org/namespaces/inkscape"
   width="100mm"
   height="100mm"
   viewBox="0 0 100 100"
   version="1.1"
   id="svg8"
   inkscape:version="1.0.1 (c497b03c, 2020-09-10)"
   sodipodi:docname="map.svg">
  <defs
     id="defs2">
    <inkscape:path-effect
       effect="fillet_chamfer"
       id="path-effect890"
       is_visible="true"
       lpeversion="1"
       satellites_param="F,0,0,1,0,10.583333,0,1 @ F,0,0,1,0,10.583333,0,1 @ F,0,0,1,0,10.583333,0,1 @ F,0,0,1,0,10.583333,0,1"
       unit="px"
       method="auto"
       mode="F"
       radius="40"
       chamfer_steps="1"
       flexible="false"
       use_knot_distance="true"
       apply_no_radius="true"
       apply_with_radius="true"
       only_selected="false"
       hide_knots="false" />
  </defs>
  <sodipodi:namedview
     id="base"
     pagecolor="#ffffff"
     bordercolor="#666666"
     borderopacity="1.0"
     inkscape:pageopacity="0.0"
     inkscape:pageshadow="2"
     inkscape:zoom="0.95112841"
     inkscape:cx="116.34286"
     inkscape:cy="219.58703"
     inkscape:document-units="mm"
     inkscape:current-layer="layer1"
     inkscape:document-rotation="0"
     showgrid="false"
     inkscape:window-width="1252"
     inkscape:window-height="855"
     inkscape:window-x="19"
     inkscape:window-y="23"
     inkscape:window-maximized="0" />
  <metadata
     id="metadata5">
    <rdf:RDF>
      <cc:Work
         rdf:about="">
        <dc:format>image/svg+xml</dc:format>
        <dc:type
           rdf:resource="http://purl.org/dc/dcmitype/StillImage" />
        <dc:title />
      </cc:Work>
    </rdf:RDF>
  </metadata>
  <g
     inkscape:label="Layer 1"
     inkscape:groupmode="layer"
     id="layer1">
    <path
       style="font-variation-settings:normal;opacity:1;vector-effect:none;fill:none;fill-opacity:1;fill-rule:evenodd;stroke-width:4;stroke-linecap:butt;stroke-linejoin:miter;stroke-miterlimit:4;stroke-dasharray:none;stroke-dashoffset:0;stroke-opacity:1;stop-color:#000000;stop-opacity:1;stroke:#ffffff"
       id="rect844"
       width="90"
       height="90"
       x="5"
       y="5"
       inkscape:path-effect="#path-effect890"
       d="M 15.583333,5 H 84.416667 A 10.583333,10.583333 45 0 1 95,15.583333 V 84.416667 A 10.583333,10.583333 135 0 1 84.416667,95 H 15.583333 A 10.583333,10.583333 45 0 1 5,84.416667 V 15.583333 A 10.583333,10.583333 135 0 1 15.583333,5 Z"
       sodipodi:type="rect" />
    <path
       id="path845"
       style="fill:none;stroke:#ffffff;stroke-width:4;stroke-linecap:butt;stroke-linejoin:miter;stroke-miterlimit:4;stroke-dasharray:none;stroke-opacity:1;opacity:0.8"
       d="m 81.549484,74.231996 13.243242,0.57592 M 70.324464,32.620868 85.197617,26.110283 84.075115,19.316631 93.055136,8.8430812 M 59.380067,13.372184 c 0,0 31.171464,-5.0854595 32.562356,-4.5291028 M 6.5637417,37.179313 C 11.615002,34.914764 21.993221,32.852826 27.108131,30.356317 35.807522,26.110284 51.412825,17.950468 54.89006,15.919803 c 5.331883,-3.113758 7.015637,-3.679895 10.944394,3.396828 3.928759,7.076722 5.331886,13.304237 5.612511,20.664028 0.280626,7.359791 10.10252,34.251337 10.10252,34.251337 l -11.225022,0.849206 c 0,0 -50.219724,10.463768 -48.828832,9.907411 L 6.2855634,37.179313"
       sodipodi:nodetypes="cccccccccsssscccc" />
    <path
       id="path855"
       style="fill:none;stroke:#ffffff;stroke-width:2;stroke-linecap:butt;stroke-linejoin:miter;stroke-miterlimit:4;stroke-dasharray:none;stroke-opacity:1;opacity:0.8"
       d="m 46.471295,47.057382 -9.821893,5.095241 5.893133,11.039687 9.541269,-5.095239 M 24.284749,5.6510708 57.696315,68.00448 58.538191,77.062685 66.71304,95.199242 M 47.313171,19.882767 39.714257,5.3484442 m 19.66581,8.0237388 0.244782,-8.068707 M 8.3062213,44.509763 15.883111,41.962143 m -2.52562,-7.642859 18.521274,48.970918 3.948336,11.347792 M 38.894404,81.025649 57.696315,68.00448 95.068443,51.835319"
       sodipodi:nodetypes="cccccccccccccccccccc" />
    <path
       id="path867"
       style="fill:none;stroke:#ffffff;stroke-width:1;stroke-linecap:butt;stroke-linejoin:miter;stroke-miterlimit:4;stroke-dasharray:none;stroke-opacity:1;opacity:0.8"
       d="M 25.894141,67.049062 40.951802,59.938687 M 46.471296,47.057382 57.1744,42.413069 M 47.313169,19.882767 59.942562,48.779674 M 49.700354,52.654998 72.122485,44.627541 94.762871,34.419848" />
    <path
       style="fill:none;stroke:#ffffff;stroke-width:2;stroke-linecap:butt;stroke-linejoin:miter;stroke-opacity:1;stroke-miterlimit:4;stroke-dasharray:none;opacity:0.8"
       d="m 6.398102,89.017072 15.097529,-4.028459 3.262242,10.148384"
       id="path892" />
  </g>
</svg>
